<?xml version="1.0" encoding="UTF-8"?>
<svg id="Ebene_1" data-name="Ebene 1" xmlns="http://www.w3.org/2000/svg" xmlns:xlink="http://www.w3.org/1999/xlink" viewBox="0 0 2132.26 1101.7">
  <defs>
    <style>
      .cls-1 {
        filter: url(#drop-shadow-7);
      }

      .cls-2 {
        fill: url(#Unbenannter_Verlauf_77);
      }

      .cls-2, .cls-3, .cls-4, .cls-5, .cls-6, .cls-7, .cls-8, .cls-9, .cls-10, .cls-11, .cls-12, .cls-13, .cls-14, .cls-15, .cls-16 {
        stroke-width: 0px;
      }

      .cls-3 {
        fill: #e2dcd5;
      }

      .cls-4 {
        fill: url(#Unbenannter_Verlauf_32);
      }

      .cls-5 {
        fill: #f9f2ed;
        opacity: .89;
      }

      .cls-6 {
        fill: none;
      }

      .cls-17 {
        filter: url(#drop-shadow-6);
      }

      .cls-7 {
        fill: url(#Unbenannter_Verlauf_82);
        filter: url(#drop-shadow-3);
      }

      .cls-8 {
        fill: url(#Unbenannter_Verlauf_77-4);
      }

      .cls-18 {
        filter: url(#drop-shadow-5);
      }

      .cls-9 {
        fill: url(#Unbenannter_Verlauf_77-5);
      }

      .cls-19 {
        clip-path: url(#clippath);
      }

      .cls-10 {
        fill: url(#Unbenannter_Verlauf_77-2);
      }

      .cls-11 {
        fill: url(#Unbenannter_Verlauf_77-3);
      }

      .cls-12 {
        fill: #d1d1d1;
        filter: url(#drop-shadow-1);
      }

      .cls-13 {
        fill: #d9cbbe;
        filter: url(#drop-shadow-2);
      }

      .cls-14 {
        fill: url(#Unbenannter_Verlauf_32-2);
        filter: url(#drop-shadow-4);
      }

      .cls-15 {
        fill: #b79579;
      }

      .cls-16 {
        fill: url(#Unbenannter_Verlauf_78);
      }
    </style>
    <clipPath id="clippath">
      <rect class="cls-6" y=".66" width="2130.98" height="1101.04"/>
    </clipPath>
    <linearGradient id="Unbenannter_Verlauf_32" data-name="Unbenannter Verlauf 32" x1="1065.3" y1="196.58" x2="1065.3" y2="-2.46" gradientUnits="userSpaceOnUse">
      <stop offset="0" stop-color="#e5e6e5"/>
      <stop offset="1" stop-color="#d8d8d8"/>
    </linearGradient>
    <filter id="drop-shadow-1" filterUnits="userSpaceOnUse">
      <feOffset dx="-30" dy="60"/>
      <feGaussianBlur result="blur" stdDeviation="40"/>
      <feFlood flood-color="#381b02" flood-opacity=".7"/>
      <feComposite in2="blur" operator="in"/>
      <feComposite in="SourceGraphic"/>
    </filter>
    <filter id="drop-shadow-2" filterUnits="userSpaceOnUse">
      <feOffset dx="-20" dy="20"/>
      <feGaussianBlur result="blur-2" stdDeviation="40"/>
      <feFlood flood-color="#000" flood-opacity=".75"/>
      <feComposite in2="blur-2" operator="in"/>
      <feComposite in="SourceGraphic"/>
    </filter>
    <linearGradient id="Unbenannter_Verlauf_82" data-name="Unbenannter Verlauf 82" x1="0" y1="400.99" x2="2131.37" y2="400.99" gradientUnits="userSpaceOnUse">
      <stop offset="0" stop-color="#f5f2f0" stop-opacity=".89"/>
      <stop offset="1" stop-color="#cdcccc"/>
    </linearGradient>
    <filter id="drop-shadow-3" filterUnits="userSpaceOnUse">
      <feOffset dx="-20" dy="20"/>
      <feGaussianBlur result="blur-3" stdDeviation="40"/>
      <feFlood flood-color="#000" flood-opacity=".75"/>
      <feComposite in2="blur-3" operator="in"/>
      <feComposite in="SourceGraphic"/>
    </filter>
    <linearGradient id="Unbenannter_Verlauf_32-2" data-name="Unbenannter Verlauf 32" x1="1065.49" y1="809.07" x2="1065.49" y2="1076.66" xlink:href="#Unbenannter_Verlauf_32"/>
    <filter id="drop-shadow-4" filterUnits="userSpaceOnUse">
      <feOffset dx="0" dy="-40"/>
      <feGaussianBlur result="blur-4" stdDeviation="40"/>
      <feFlood flood-color="#fff" flood-opacity=".75"/>
      <feComposite in2="blur-4" operator="in"/>
      <feComposite in="SourceGraphic"/>
    </filter>
    <filter id="drop-shadow-5" filterUnits="userSpaceOnUse">
      <feOffset dx="-40" dy="20"/>
      <feGaussianBlur result="blur-5" stdDeviation="20"/>
      <feFlood flood-color="#3c240f" flood-opacity=".3"/>
      <feComposite in2="blur-5" operator="in"/>
      <feComposite in="SourceGraphic"/>
    </filter>
    <linearGradient id="Unbenannter_Verlauf_77" data-name="Unbenannter Verlauf 77" x1="831.51" y1="929.44" x2="1243.69" y2="850.18" gradientUnits="userSpaceOnUse">
      <stop offset="0" stop-color="#f8f6f4"/>
      <stop offset="1" stop-color="#c3ae99"/>
    </linearGradient>
    <radialGradient id="Unbenannter_Verlauf_78" data-name="Unbenannter Verlauf 78" cx="811.82" cy="947.79" fx="811.82" fy="947.79" r="547.29" gradientUnits="userSpaceOnUse">
      <stop offset="0" stop-color="#c3ae99"/>
      <stop offset="1" stop-color="#f8f6f4"/>
    </radialGradient>
    <filter id="drop-shadow-6" filterUnits="userSpaceOnUse">
      <feOffset dx="-5" dy="5"/>
      <feGaussianBlur result="blur-6" stdDeviation="5"/>
      <feFlood flood-color="#3c240f" flood-opacity=".3"/>
      <feComposite in2="blur-6" operator="in"/>
      <feComposite in="SourceGraphic"/>
    </filter>
    <linearGradient id="Unbenannter_Verlauf_77-2" data-name="Unbenannter Verlauf 77" x1="1285.43" y1="896.17" x2="854.74" y2="896.17" xlink:href="#Unbenannter_Verlauf_77"/>
    <linearGradient id="Unbenannter_Verlauf_77-3" data-name="Unbenannter Verlauf 77" x1="914.19" y1="920.75" x2="1175.77" y2="828.27" xlink:href="#Unbenannter_Verlauf_77"/>
    <filter id="drop-shadow-7" filterUnits="userSpaceOnUse">
      <feOffset dx="-5" dy="5"/>
      <feGaussianBlur result="blur-7" stdDeviation="5"/>
      <feFlood flood-color="#3c240f" flood-opacity=".3"/>
      <feComposite in2="blur-7" operator="in"/>
      <feComposite in="SourceGraphic"/>
    </filter>
    <linearGradient id="Unbenannter_Verlauf_77-4" data-name="Unbenannter Verlauf 77" x1="1245.8" y1="873.01" x2="887.77" y2="873.01" xlink:href="#Unbenannter_Verlauf_77"/>
    <linearGradient id="Unbenannter_Verlauf_77-5" data-name="Unbenannter Verlauf 77" x1="957.15" y1="876.12" x2="1165.89" y2="821.96" xlink:href="#Unbenannter_Verlauf_77"/>
  </defs>
  <g class="cls-19">
    <rect class="cls-4" x="-.39" y=".56" width="2131.37" height="1101.14"/>
    <path class="cls-15" d="M1173.57,504.63v218.57h-216.54v-218.57c0-59.8,48.47-108.27,108.27-108.27s108.27,48.47,108.27,108.27Z"/>
    <path class="cls-12" d="M53.5,79.83v668.47h903.52v-243.67c0-59.8,48.47-108.27,108.27-108.27s108.27,48.47,108.27,108.27v243.67h853.66V79.83H53.5Z"/>
    <path class="cls-13" d="M-.66.66v766.8h929.94v-295.08c0-74.75,60.6-135.35,135.36-135.35s135.36,60.6,135.36,135.35v295.08h931.6V.66H-.66Z"/>
    <path class="cls-7" d="M2131.37,0H0v801.99h887.4v-342.18c0-98.28,79.7-177.95,178-177.9,98.49.05,177.8,81.11,177.8,179.6v340.48h888.17V0Z"/>
    <rect class="cls-14" x="0" y="801.99" width="2130.98" height="299.71"/>
    <g>
      <g class="cls-18">
        <path class="cls-2" d="M1346.64,884.42c0,27.9-125.82,50.52-281.03,50.52s-278.49-22.17-280.99-49.68h0c-.01-.12-.02-.24-.02-.35-.02-.16-.02-.33-.02-.49,0-.19.03-.38.04-.57v-.19h.01c.04-.48.12-.97.23-1.45.17-.72.43-1.44.77-2.15.11-.24.23-.48.36-.71.26-.48.56-.95.9-1.42.3-.42.63-.83.98-1.25.13-.15.26-.3.4-.46.28-.3.57-.6.87-.9.15-.16.31-.31.47-.46.01-.02.02-.03.04-.03.16-.15.33-.31.5-.46.51-.45,1.05-.9,1.63-1.36,0,0,0-.01.02-.01,1.04-.8,2.18-1.6,3.43-2.4.31-.2.63-.4.96-.59s.66-.39,1-.59c.33-.2.68-.4,1.03-.58.27-.15.55-.31.83-.45.14-.09.27-.16.42-.23,1.04-.55,2.13-1.1,3.27-1.64.44-.21.88-.42,1.33-.62.79-.36,1.61-.72,2.46-1.08.48-.21.98-.42,1.49-.63.85-.35,1.72-.7,2.62-1.04.47-.18.96-.36,1.44-.55.49-.18.98-.36,1.48-.54,1-.36,2.02-.72,3.06-1.08,1.14-.4,2.32-.79,3.52-1.17.99-.32,2-.63,3.02-.95.57-.17,1.14-.35,1.72-.52.58-.17,1.17-.34,1.76-.51.59-.18,1.18-.34,1.78-.51.61-.17,1.21-.34,1.82-.51.62-.17,1.23-.33,1.86-.5.62-.17,1.25-.34,1.88-.5.63-.16,1.27-.33,1.92-.49.17-.05.35-.1.53-.14,1.08-.27,2.18-.54,3.29-.81,5.35-1.3,11.04-2.55,17.04-3.75.75-.15,1.5-.3,2.25-.44,3.02-.59,6.12-1.17,9.29-1.73.79-.14,1.59-.28,2.39-.42.8-.14,1.61-.28,2.42-.41,1.62-.28,3.26-.55,4.92-.81.83-.14,1.66-.27,2.5-.4,3.35-.53,6.77-1.04,10.26-1.54.88-.13,1.75-.25,2.63-.37,1.76-.25,3.54-.49,5.34-.73.89-.12,1.8-.24,2.7-.35,1.96-.26,3.95-.51,5.95-.76.77-.09,1.54-.18,2.31-.27,1.14-.14,2.28-.28,3.43-.41.72-.08,1.46-.17,2.19-.25,4.72-.54,9.54-1.05,14.45-1.54.98-.1,1.97-.2,2.96-.29.99-.1,1.98-.19,2.97-.28,1-.1,2-.19,3-.28,2-.18,4.03-.36,6.06-.54,1.72-.14,3.44-.29,5.17-.43,2.4-.19,4.81-.38,7.24-.56,1.03-.08,2.06-.16,3.09-.23,4.29-.31,8.63-.61,13.02-.89.98-.05,1.96-.11,2.95-.17.83-.05,1.66-.1,2.5-.15,1.09-.07,2.19-.13,3.29-.19,1.33-.07,2.66-.15,4-.22,1.82-.09,3.65-.19,5.48-.28,6.05-.29,12.17-.55,18.37-.77,1-.04,1.99-.08,2.99-.11.99-.04,1.99-.07,2.98-.1.91-.03,1.82-.06,2.74-.09,7.61-.23,15.33-.4,23.13-.52,1.72-.03,3.43-.05,5.16-.07.43,0,.86,0,1.29-.02,2.12-.02,4.25-.04,6.38-.05,3.66-.03,7.35-.04,11.05-.04s7.4.01,11.07.04c2.12,0,4.22.03,6.32.05.45.01.91.02,1.36.02,1.72.02,3.42.04,5.13.07,7.82.12,15.55.29,23.17.52.9.03,1.8.06,2.7.09.99.03,1.99.06,2.98.1,1.04.03,2.08.07,3.11.11,6.18.22,12.28.48,18.31.78.93.04,1.86.09,2.79.14,2.24.11,4.48.23,6.7.35,1.08.06,2.15.13,3.22.19.84.05,1.67.1,2.5.15.98.06,1.97.12,2.95.17,4.39.28,8.73.58,13.02.89,1.03.07,2.06.15,3.09.23,2.43.18,4.84.37,7.24.56,1.73.14,3.46.28,5.17.43,2.03.18,4.06.36,6.06.54,1,.09,2,.18,2.99.28,1,.09,1.99.18,2.98.28.99.09,1.98.19,2.96.29,4.91.49,9.73,1,14.45,1.54.69.08,1.38.16,2.06.23,1.2.14,2.39.29,3.57.43.75.09,1.51.18,2.26.27,4.78.59,9.46,1.2,14.03,1.84.88.12,1.76.24,2.63.37.44.06.88.13,1.33.19.81.11,1.62.23,2.42.35,2.2.33,4.38.66,6.52,1,.83.13,1.67.26,2.5.4,10.5,1.69,20.29,3.52,29.27,5.48.71.15,1.42.31,2.13.47,2.46.55,4.86,1.11,7.19,1.67.54.13,1.07.27,1.6.4.66.16,1.31.32,1.95.49.64.16,1.28.33,1.91.49,3.89,1.01,7.57,2.06,11.04,3.12.83.26,1.65.51,2.46.77.11.04.22.07.33.11.55.17,1.1.35,1.64.53,4.33,1.43,8.28,2.91,11.83,4.42.24.1.48.2.71.3.25.11.5.22.75.33,2.11.93,4.06,1.87,5.86,2.83.37.19.73.39,1.09.59.02.01.04.02.06.03.69.38,1.35.77,1.99,1.15,1.32.8,2.53,1.6,3.63,2.41.44.33.87.66,1.27.99.36.28.7.56,1.02.85.46.4.89.8,1.29,1.21.22.22.43.43.63.65.38.42.74.84,1.06,1.26.31.39.6.8.86,1.2.56.87,1,1.76,1.31,2.65.07.2.14.41.19.61.12.4.2.8.26,1.2.03.17.05.35.07.53,0,.04.01.09.01.14.02.24.03.49.03.73Z"/>
        <path class="cls-16" d="M1346.64,884.42v38.08c0,27.9-125.82,50.52-281.03,50.52s-281.03-22.62-281.03-50.52c0-.28.01-.56.04-.84v-36.4c2.5,27.51,127.35,49.68,280.99,49.68s281.03-22.62,281.03-50.52Z"/>
      </g>
      <path class="cls-3" d="M1343.91,877.36c-.32-.42-.68-.84-1.06-1.26.39.42.74.84,1.06,1.26Z"/>
      <g class="cls-17">
        <path class="cls-10" d="M1292.03,867.22v17.2c0,22.48-101.37,40.7-226.42,40.7s-226.42-18.22-226.42-40.7v-17.2c0,22.48,101.37,40.7,226.42,40.7s226.42-18.22,226.42-40.7Z"/>
        <ellipse class="cls-11" cx="1065.61" cy="867.22" rx="226.42" ry="40.7"/>
      </g>
      <g class="cls-1">
        <path class="cls-8" d="M1250.2,847.98v16.89c0,18.32-82.65,33.18-184.59,33.18s-184.59-14.86-184.59-33.18v-16.89c0,18.32,82.65,33.18,184.59,33.18s184.59-14.86,184.59-33.18Z"/>
        <ellipse class="cls-9" cx="1065.61" cy="847.98" rx="184.59" ry="33.18"/>
      </g>
    </g>
  </g>
  <rect class="cls-5" x=".64" y=".33" width="2130.98" height="1101.04"/>
</svg>