<?xml version="1.0" encoding="UTF-8"?>
<svg id="Ebene_1" data-name="Ebene 1" xmlns="http://www.w3.org/2000/svg" viewBox="0 0 102.05 68.03">
  <defs>
    <style>
      .cls-1 {
        fill: #010101;
      }
    </style>
  </defs>
  <!-- Email envelope -->
  <path class="cls-1" d="m74.51,54.91H27.54c-1.72,0-3.12-1.4-3.12-3.12V16.24c0-1.72,1.4-3.12,3.12-3.12h46.97c1.72,0,3.12,1.4,3.12,3.12v35.55c0,1.72-1.4,3.12-3.12,3.12ZM27.54,15.12c-.62,0-1.12.5-1.12,1.12v35.55c0,.62.5,1.12,1.12,1.12h46.97c.62,0,1.12-.5,1.12-1.12V16.24c0-.62-.5-1.12-1.12-1.12H27.54Z"/>

  <!-- Email content lines -->
  <rect class="cls-1" x="32.03" y="25.03" width="25" height="2" rx="1" ry="1"/>
  <rect class="cls-1" x="32.03" y="30.03" width="37.98" height="2" rx="1" ry="1"/>
  <rect class="cls-1" x="32.03" y="35.03" width="30" height="2" rx="1" ry="1"/>

  <!-- Subscribe/plus icon -->
  <circle class="cls-1" cx="83" cy="25" r="8"/>
  <rect class="cls-1" x="79" y="21" width="8" height="2" rx="1" ry="1" fill="white"/>
  <rect class="cls-1" x="82" y="18" width="2" height="8" rx="1" ry="1" fill="white"/>
</svg>