<svg xmlns="http://www.w3.org/2000/svg" viewBox="0 0 48 48">
  <path d="M24,9.569A14.431,14.431,0,1,0,38.431,24,14.431,14.431,0,0,0,24,9.569Zm-.836,18.314H17.112v-1.53C18.98,24.81,20.97,23.278,20.97,21.8c0-.639-.29-1.049-.916-1.049s-.977.482-.977,1.314H17.088a2.864,2.864,0,0,1,3.05-3.05c2,0,2.893,1.17,2.893,2.652,0,1.929-1.724,3.472-3.122,4.545h3.255ZM27.731,28c-1.977,0-3.122-1.1-3.194-2.616H26.55a1.041,1.041,0,0,0,1.109.868c.783,0,1.121-.567,1.121-1.326,0-.8-.4-1.218-1.134-1.218a.973.973,0,0,0-1.024.724H24.633V19.192h5.629V21H26.5v1.664a2.208,2.208,0,0,1,1.616-.6,2.6,2.6,0,0,1,2.652,2.881A2.807,2.807,0,0,1,27.731,28Z"/>
</svg>
