<svg xmlns="http://www.w3.org/2000/svg" viewBox="0 0 48 48">
  <g>
    <path d="M16.1,25.655H12.484V22.284A11.529,11.529,0,0,1,24,10.768v3.616a7.909,7.909,0,0,0-7.9,7.9Z"/>
    <path d="M35.515,25.655H31.9V22.284a7.908,7.908,0,0,0-7.9-7.9V10.768A11.528,11.528,0,0,1,35.515,22.284Z"/>
    <path d="M13.155,20.753H16.5a.805.805,0,0,1,.805.805v9.7a.805.805,0,0,1-.805.805H13.155a1.878,1.878,0,0,1-1.878-1.878V22.631A1.878,1.878,0,0,1,13.155,20.753Z"/>
    <path d="M32.57,20.753h3.348a.805.805,0,0,1,.805.805v9.7a.805.805,0,0,1-.805.805H32.57a1.878,1.878,0,0,1-1.878-1.878V22.631A1.878,1.878,0,0,1,32.57,20.753Z" transform="translate(67.415 52.819) rotate(-180)"/>
    <path d="M24.744,38.258H22.487A6.561,6.561,0,0,1,15.933,31.7V27.329h1.35V31.7a5.209,5.209,0,0,0,5.2,5.2h2.257Z"/>
    <circle cx="24.016" cy="37.583" r="2.174"/>
  </g>
</svg>
