<?xml version="1.0" encoding="UTF-8"?>
<svg id="Ebene_1" data-name="Ebene 1" xmlns="http://www.w3.org/2000/svg" viewBox="0 0 68.03 68.03">
  <defs>
    <style>
      .cls-1 {
        fill: #010101;
      }
    </style>
  </defs>
  <path class="cls-1" d="m52.84,22.88H15.19c-.83,0-1.5-.67-1.5-1.5s.67-1.5,1.5-1.5h37.65c.83,0,1.5.67,1.5,1.5s-.67,1.5-1.5,1.5Z"/>
  <path class="cls-1" d="m52.84,31.3h-24.65c-.83,0-1.5-.67-1.5-1.5s.67-1.5,1.5-1.5h24.65c.83,0,1.5.67,1.5,1.5s-.67,1.5-1.5,1.5Z"/>
  <path class="cls-1" d="m52.84,39.73H15.19c-.83,0-1.5-.67-1.5-1.5s.67-1.5,1.5-1.5h37.65c.83,0,1.5.67,1.5,1.5s-.67,1.5-1.5,1.5Z"/>
  <path class="cls-1" d="m52.84,48.15h-24.65c-.83,0-1.5-.67-1.5-1.5s.67-1.5,1.5-1.5h24.65c.83,0,1.5.67,1.5,1.5s-.67,1.5-1.5,1.5Z"/>
</svg>