<svg xmlns="http://www.w3.org/2000/svg" viewBox="0 0 48 48">
  <g>
    <path d="M28.292,35.832a.6.6,0,0,1-.431-.178l-2.378-2.379a.61.61,0,0,1,.863-.863l1.946,1.946,5.448-5.446a.612.612,0,0,1,.865.865l-5.884,5.877A.606.606,0,0,1,28.292,35.832Z"/>
    <g>
      <rect x="14.953" y="12.103" width="5.274" height="5.274" rx="0.615"/>
      <rect x="21.218" y="12.103" width="5.274" height="5.274" rx="0.615"/>
      <rect x="27.483" y="12.103" width="5.274" height="5.274" rx="0.615"/>
      <rect x="14.953" y="18.326" width="5.274" height="5.274" rx="0.615"/>
      <rect x="21.218" y="18.326" width="5.274" height="5.274" rx="0.615"/>
      <rect x="27.483" y="18.326" width="5.274" height="5.274" rx="0.615"/>
      <rect x="14.953" y="24.549" width="5.274" height="5.274" rx="0.615"/>
      <path d="M25.877,24.549H21.833a.615.615,0,0,0-.615.615v4.044a.615.615,0,0,0,.615.615h.931a7.634,7.634,0,0,1,3.705-4.771A.606.606,0,0,0,25.877,24.549Z"/>
      <rect x="14.953" y="30.772" width="5.274" height="5.274" rx="0.615"/>
      <path d="M21.218,31.387v4.044a.615.615,0,0,0,.615.615h2.039a7.461,7.461,0,0,1-1.292-5.274h-.747A.615.615,0,0,0,21.218,31.387Z"/>
      <path d="M24.51,36.838H15.677A1.538,1.538,0,0,1,14.141,35.3V12.818a1.538,1.538,0,0,1,1.536-1.536H32.012a1.538,1.538,0,0,1,1.536,1.536V24.941a7.794,7.794,0,0,1,.866.509V12.818a2.4,2.4,0,0,0-2.4-2.4H15.677a2.4,2.4,0,0,0-2.4,2.4V35.3a2.4,2.4,0,0,0,2.4,2.4h9.765A7.717,7.717,0,0,1,24.51,36.838Z"/>
      <path d="M34.414,25.45a7.794,7.794,0,0,0-.866-.509,7.562,7.562,0,0,0-7.079.111,7.591,7.591,0,0,0-2.6,10.994,7.836,7.836,0,0,0,.638.792,7.717,7.717,0,0,0,.932.866A7.6,7.6,0,1,0,34.414,25.45ZM30.12,38.46a6.739,6.739,0,1,1,6.739-6.739A6.747,6.747,0,0,1,30.12,38.46Z"/>
    </g>
  </g>
</svg>
