<svg xmlns="http://www.w3.org/2000/svg" viewBox="0 0 48 48">
  <path d="M22.278,15.966h0a8.511,8.511,0,0,0,.459-2.066v-.459a3.579,3.579,0,0,0,0-2.3v-.229l-.229-.23h0a.225.225,0,0,1-.23.23,9.339,9.339,0,0,0,0,5.05ZM15.392,31.805a5.033,5.033,0,0,0-1.148.688,11.315,11.315,0,0,0-2.984,3.673h0c1.377-.229,2.754-1.607,4.132-4.361Zm21.119-3.444c-.23-.229-1.148-.918-4.362-.918H31.69v.23a12.338,12.338,0,0,0,4.362,1.148h.688v-.23h0a.225.225,0,0,1-.229-.23Zm.918,1.837a4.592,4.592,0,0,1-2.066.459,16.546,16.546,0,0,1-6.887-1.607,37.759,37.759,0,0,0-9.182,1.837c-.229,0-.229,0-.459.229-2.755,4.821-5.05,7.116-6.887,7.116-.459,0-.688,0-.918-.229l-1.147-.689v-.23a2.063,2.063,0,0,1-.23-1.147c.23-1.148,1.607-3.214,4.361-4.821.46-.229,1.148-.689,2.066-1.148.689-1.147,1.378-2.525,2.3-4.132A48.551,48.551,0,0,0,20.9,19.179h0c-.918-2.754-1.377-4.361-.459-7.575.229-.918.918-1.836,1.836-1.836h.459a3.254,3.254,0,0,1,1.378.459c1.607,1.607.918,5.28,0,8.264v.229a16.577,16.577,0,0,0,3.673,5.969,16.009,16.009,0,0,0,2.066,1.377c1.147,0,2.066-.23,2.984-.23,2.754,0,4.591.46,5.279,1.607a2.907,2.907,0,0,1,.23,1.378,14.211,14.211,0,0,1-.918,1.377ZM22.508,21.245a47.655,47.655,0,0,1-2.3,5.51c-.459.918-.918,1.606-1.377,2.525h.459a34.684,34.684,0,0,1,7.575-2.066,3.175,3.175,0,0,1-.918-.689,23.316,23.316,0,0,1-3.443-5.28Z" style="fill-rule: evenodd"/>
</svg>
