<?xml version="1.0" encoding="UTF-8"?>
<svg id="Ebene_1" data-name="Ebene 1" xmlns="http://www.w3.org/2000/svg" viewBox="0 0 68.03 68.03">
  <defs>
    <style>
      .cls-1 {
        fill: #010101;
      }
    </style>
  </defs>
  <path class="cls-1" d="m38.31,22.89h-8.6c-1.88,0-3.4,1.52-3.4,3.4v15.44c0,1.88,1.52,3.4,3.4,3.4h8.6c1.88,0,3.4-1.52,3.4-3.4v-15.44c0-1.88-1.52-3.4-3.4-3.4Zm1,18.84c0,.55-.45,1-1,1h-8.6c-.55,0-1-.45-1-1v-15.44c0-.55.45-1,1-1h1.45c.15.49.59.86,1.13.86h3.99c.54,0,.98-.37,1.13-.86h.89c.55,0,1,.45,1,1v15.44Z"/>
</svg>