<?xml version="1.0" encoding="UTF-8"?>
<svg id="Ebene_1" data-name="Ebene 1" xmlns="http://www.w3.org/2000/svg" xmlns:xlink="http://www.w3.org/1999/xlink" viewBox="0 0 2132.26 1101.7">
  <defs>
    <style>
      .cls-1 {
        fill: none;
        stroke: #cc6060;
        stroke-miterlimit: 10;
      }

      .cls-2 {
        fill: url(#Unbenannter_Verlauf_12-2);
        filter: url(#drop-shadow-3);
      }

      .cls-2, .cls-3, .cls-4, .cls-5, .cls-6, .cls-7 {
        stroke-width: 0px;
      }

      .cls-3 {
        fill: url(#Unbenannter_Verlauf_12);
      }

      .cls-4 {
        fill: #d1d1d1;
        filter: url(#drop-shadow-1);
      }

      .cls-5 {
        fill: url(#Unbenannter_Verlauf_12-3);
      }

      .cls-6 {
        fill: #d9cbbe;
        filter: url(#drop-shadow-2);
      }

      .cls-7 {
        fill: #ae9b8a;
      }
    </style>
    <linearGradient id="Unbenannter_Verlauf_12" data-name="Unbenannter Verlauf 12" x1="0" y1="912.45" x2="2131.37" y2="912.45" gradientUnits="userSpaceOnUse">
      <stop offset="0" stop-color="#dfdfde"/>
      <stop offset="1" stop-color="#cdcccc"/>
    </linearGradient>
    <filter id="drop-shadow-1" filterUnits="userSpaceOnUse">
      <feOffset dx="-30" dy="60"/>
      <feGaussianBlur result="blur" stdDeviation="40"/>
      <feFlood flood-color="#381b02" flood-opacity=".7"/>
      <feComposite in2="blur" operator="in"/>
      <feComposite in="SourceGraphic"/>
    </filter>
    <filter id="drop-shadow-2" filterUnits="userSpaceOnUse">
      <feOffset dx="-20" dy="20"/>
      <feGaussianBlur result="blur-2" stdDeviation="40"/>
      <feFlood flood-color="#000" flood-opacity=".75"/>
      <feComposite in2="blur-2" operator="in"/>
      <feComposite in="SourceGraphic"/>
    </filter>
    <linearGradient id="Unbenannter_Verlauf_12-2" data-name="Unbenannter Verlauf 12" x1="0" y1="400.99" x2="2131.37" y2="400.99" xlink:href="#Unbenannter_Verlauf_12"/>
    <filter id="drop-shadow-3" filterUnits="userSpaceOnUse">
      <feOffset dx="-20" dy="20"/>
      <feGaussianBlur result="blur-3" stdDeviation="40"/>
      <feFlood flood-color="#000" flood-opacity=".75"/>
      <feComposite in2="blur-3" operator="in"/>
      <feComposite in="SourceGraphic"/>
    </filter>
    <linearGradient id="Unbenannter_Verlauf_12-3" data-name="Unbenannter Verlauf 12" y1="951.84" y2="951.84" xlink:href="#Unbenannter_Verlauf_12"/>
  </defs>
  <rect class="cls-3" y="723.2" width="2131.37" height="378.5"/>
  <path class="cls-4" d="M53.5,79.83v668.47h903.52v-243.67c0-59.8,48.47-108.27,108.27-108.27s108.27,48.47,108.27,108.27v243.67h853.66V79.83H53.5Z"/>
  <path class="cls-6" d="M-.66.66v766.8h929.94v-295.08c0-74.75,60.6-135.35,135.36-135.35s135.36,60.6,135.36,135.35v295.08h931.6V.66H-.66Z"/>
  <path class="cls-2" d="M2131.37,0H0v801.99h887.4v-342.18c0-98.28,79.7-177.95,178-177.9,98.49.05,177.8,81.11,177.8,179.6v340.48h888.17V0Z"/>
  <rect class="cls-5" y="801.99" width="2131.37" height="299.71"/>
  <path class="cls-7" d="M1173.57,504.63v218.57h-216.54v-218.57c0-59.8,48.47-108.27,108.27-108.27s108.27,48.47,108.27,108.27Z"/>
  <ellipse class="cls-1" cx="1065.61" cy="847.98" rx="184.59" ry="33.18"/>
  <ellipse class="cls-1" cx="1065.61" cy="864.87" rx="184.59" ry="33.18"/>
  <ellipse class="cls-1" cx="1065.61" cy="867.22" rx="226.42" ry="40.7"/>
  <ellipse class="cls-1" cx="1065.61" cy="884.42" rx="226.42" ry="40.7"/>
  <ellipse class="cls-1" cx="1065.61" cy="884.42" rx="281.03" ry="50.52"/>
  <ellipse class="cls-1" cx="1065.61" cy="922.5" rx="281.03" ry="50.52"/>
</svg>